# xmcd
# 
# Track frame offsets:
#     150
#     21032
#     56515
#     70642
# 
# Disc length: 1207
# 
# Revision: 0
# Processed by: cddbd v1.5.2PL0 Copyright (c) Steve Scherf et al.
# Submitted via: fre:ac v1.0.17
# 
DISCID=2904b504
DTITLE=Apollo 18 - Black
DYEAR=2011
DGENRE=Post Rock
TTITLE0=Sonic Boom
TTITLE1=Deadend
TTITLE2=Corpse Flower
TTITLE3=Mur
EXTD=
EXTT0=
EXTT1=
EXTT2=
EXTT3=
PLAYORDER=
